<?xml version="1.0" standalone="no"?>
<!DOCTYPE svg PUBLIC "-//W3C//DTD SVG 20010904//EN"
 "http://www.w3.org/TR/2001/REC-SVG-20010904/DTD/svg10.dtd">
<svg version="1.0" xmlns="http://www.w3.org/2000/svg"
 width="512.000000pt" height="512.000000pt" viewBox="0 0 512.000000 512.000000"
 preserveAspectRatio="xMidYMid meet">
<metadata>
Created by potrace 1.14, written by Peter Selinger 2001-2017
</metadata>
<g transform="translate(0.000000,512.000000) scale(0.100000,-0.100000)"
fill="#000000" stroke="none">
<path d="M3385 5013 c3 -60 7 -258 10 -442 3 -183 8 -337 11 -342 2 -5 23 -13
46 -20 23 -6 47 -17 55 -25 8 -8 21 -14 29 -14 10 0 14 -12 14 -41 0 -40 27
-89 72 -130 9 -9 22 -27 28 -40 6 -13 20 -39 31 -58 11 -19 21 -43 22 -53 1
-10 5 -18 9 -18 4 0 8 -4 8 -9 0 -5 5 -22 12 -38 6 -15 12 -30 12 -33 7 -35
46 -40 46 -6 0 17 7 27 23 32 29 9 69 41 82 65 9 16 17 5 52 -78 73 -175 88
-252 88 -453 -1 -148 -5 -198 -29 -325 -50 -271 -96 -430 -147 -510 l-30 -47
16 -99 c10 -67 15 -161 14 -301 0 -112 3 -219 8 -238 l9 -35 164 -7 c91 -4
318 -12 505 -18 187 -6 393 -13 458 -16 l117 -6 0 296 c0 266 -5 329 -23 284
-3 -7 -6 38 -6 100 -1 133 17 153 22 25 1 -49 4 298 5 770 l2 857 -32 0 c-18
0 -112 -5 -208 -10 -96 -5 -346 -14 -555 -20 -254 -8 -382 -15 -386 -22 -4 -6
-10 10 -14 36 -4 26 -5 49 -3 52 8 7 303 22 678 34 184 6 377 13 428 16 l92 6
0 76 0 75 -177 -7 c-98 -3 -308 -13 -468 -22 -159 -8 -344 -14 -409 -12 l-120
3 -8 30 c-8 31 -12 350 -6 607 2 115 6 150 18 162 8 7 46 17 85 20 73 6 125
13 162 21 24 6 81 11 243 24 59 5 -123 9 -482 10 l-577 1 4 -107z m1465 -1143
c0 -25 -4 -30 -25 -30 -20 0 -25 5 -25 23 0 28 7 37 32 37 13 0 18 -8 18 -30z
m-222 -12 l-3 -33 -72 -3 -73 -3 0 30 c0 33 10 37 103 40 l48 1 -3 -32z m152
2 l0 -30 -60 0 -60 0 0 30 0 30 60 0 60 0 0 -30z m300 18 c0 -9 4 -8 10 2 5 8
10 12 10 8 0 -3 3 -13 6 -22 5 -12 0 -16 -20 -16 -19 0 -26 5 -26 20 0 11 5
20 10 20 6 0 10 -6 10 -12z m-840 -38 c0 -11 -7 -20 -15 -20 -15 0 -21 21 -8
33 12 13 23 7 23 -13z m108 2 c2 -8 -8 -12 -27 -12 -21 0 -31 5 -31 15 0 19
52 15 58 -3z m92 -2 c0 -11 -7 -20 -15 -20 -8 0 -15 9 -15 20 0 11 7 20 15 20
8 0 15 -9 15 -20z m-370 -7 c0 -7 -9 -13 -20 -13 -11 0 -20 6 -20 13 0 7 9 13
20 13 11 0 20 -6 20 -13z m70 2 c0 -8 -4 -15 -10 -15 -5 0 -10 7 -10 15 0 8 5
15 10 15 6 0 10 -7 10 -15z m307 -50 c0 -8 -8 -15 -18 -15 -27 0 -32 18 -7 23
13 2 23 5 24 6 0 0 1 -6 1 -14z m213 5 c0 -5 -4 -10 -10 -10 -5 0 -10 5 -10
10 0 6 5 10 10 10 6 0 10 -4 10 -10z m80 0 c0 -5 -5 -10 -11 -10 -5 0 -7 5 -4
10 3 6 8 10 11 10 2 0 4 -4 4 -10z m-400 -10 c0 -5 -6 -10 -14 -10 -8 0 -18 5
-21 10 -3 6 3 10 14 10 12 0 21 -4 21 -10z m130 -435 l0 -195 -115 0 -115 0 0
195 0 195 115 0 115 0 0 -195z m50 0 c0 -188 -1 -195 -20 -195 -19 0 -20 7
-20 195 0 188 1 195 20 195 19 0 20 -7 20 -195z m23 -2 c3 -115 2 -193 -4
-193 -5 0 -9 84 -9 197 0 108 2 194 4 192 2 -2 6 -91 9 -196z m27 0 c0 -108
-2 -194 -5 -191 -3 2 -8 91 -12 196 -4 142 -3 192 5 192 9 0 12 -55 12 -197z
m48 0 l-2 -198 -6 170 -6 170 -2 -167 c-1 -104 -6 -168 -12 -168 -6 0 -10 72
-10 195 0 188 1 195 20 195 19 0 20 -6 18 -197z m32 2 c0 -123 -4 -195 -10
-195 -6 0 -10 72 -10 195 0 123 4 195 10 195 6 0 10 -72 10 -195z m22 -63 c2
-72 0 -132 -4 -132 -5 0 -7 89 -6 198 2 199 6 176 10 -66z m358 213 c0 -8 -4
-15 -10 -15 -5 0 -10 7 -10 15 0 8 5 15 10 15 6 0 10 -7 10 -15z m-75 -5 c3
-5 -3 -10 -14 -10 -12 0 -21 5 -21 10 0 6 6 10 14 10 8 0 18 -4 21 -10z m40 0
c-3 -5 -10 -10 -16 -10 -5 0 -9 5 -9 10 0 6 7 10 16 10 8 0 12 -4 9 -10z m7
-107 l2 -88 5 85 c4 50 11 86 17 87 6 1 10 -10 9 -25 -1 -15 -3 -82 -3 -149
l-2 -123 -36 0 -36 0 4 65 c2 36 0 65 -4 65 -13 0 -9 145 4 158 29 29 38 13
40 -75z m-882 49 c0 -5 -7 -9 -15 -9 -8 0 -15 4 -15 9 0 4 7 8 15 8 8 0 15 -4
15 -8z m105 -2 c-3 -5 -26 -10 -51 -10 -24 0 -44 5 -44 10 0 6 23 10 51 10 31
0 48 -4 44 -10z m-105 -145 c0 -8 -4 -15 -10 -15 -5 0 -7 7 -4 15 4 8 8 15 10
15 2 0 4 -7 4 -15z m60 0 c0 -8 -4 -15 -10 -15 -5 0 -7 7 -4 15 4 8 8 15 10
15 2 0 4 -7 4 -15z m50 -1 c0 -9 -7 -14 -17 -12 -25 5 -28 28 -4 28 12 0 21
-6 21 -16z m218 -424 c2 -111 6 -166 14 -171 7 -4 -40 -7 -103 -6 l-114 2 -3
173 -2 173 102 -3 103 -3 3 -165z m109 138 c-3 -8 -6 -5 -6 6 -1 11 2 17 5 13
3 -3 4 -12 1 -19z m20 -120 c-2 -29 -3 -8 -3 47 0 55 1 79 3 53 2 -26 2 -71 0
-100z m20 35 c-2 -21 -4 -4 -4 37 0 41 2 58 4 38 2 -21 2 -55 0 -75z m20 85
c-3 -8 -6 -5 -6 6 -1 11 2 17 5 13 3 -3 4 -12 1 -19z m473 -35 c0 -27 3 -59 7
-73 6 -22 5 -24 -10 -11 -12 10 -17 29 -17 72 0 33 4 59 10 59 6 0 10 -21 10
-47z m-33 -45 c-2 -18 -4 -6 -4 27 0 33 2 48 4 33 2 -15 2 -42 0 -60z m-827
21 c0 -11 -4 -18 -10 -14 -5 3 -7 12 -3 20 7 21 13 19 13 -6z m-2 -147 c2 -7
-5 -12 -17 -12 -14 0 -19 5 -14 15 6 17 25 15 31 -3z m350 -309 l122 -6 0
-182 0 -181 -172 3 c-95 2 -183 6 -195 9 -23 4 -23 6 -23 184 l0 180 73 0 c41
0 129 -3 195 -7z m500 -125 l-2 -133 -6 125 c-3 69 -4 128 -2 133 10 22 12 -6
10 -125z m-31 -51 c-2 -23 -3 -1 -3 48 0 50 1 68 3 42 2 -26 2 -67 0 -90z
m-17 73 c0 -11 -4 -20 -10 -20 -5 0 -10 9 -10 20 0 11 5 20 10 20 6 0 10 -9
10 -20z m-40 0 c0 -5 -4 -10 -10 -10 -5 0 -10 5 -10 10 0 6 5 10 10 10 6 0 10
-4 10 -10z m37 -67 c-3 -10 -5 -4 -5 12 0 17 2 24 5 18 2 -7 2 -21 0 -30z"/>
<path d="M4972 3200 c0 -14 2 -19 5 -12 2 6 2 18 0 25 -3 6 -5 1 -5 -13z"/>
<path d="M4060 4773 c-31 -12 -40 -47 -15 -57 17 -6 65 13 65 26 0 9 -25 39
-32 37 -2 0 -10 -3 -18 -6z"/>
<path d="M2163 4411 c-49 -40 -63 -77 -73 -187 -8 -94 -8 -110 7 -126 9 -10
20 -18 25 -18 4 0 29 -10 54 -22 38 -17 55 -36 99 -103 69 -107 108 -127 87
-43 -19 73 -4 54 19 -25 l21 -74 146 -2 c80 -1 154 -6 164 -12 14 -8 18 -22
18 -63 0 -29 -3 -68 -7 -86 l-6 -33 -81 6 c-45 4 -110 9 -145 13 l-64 7 7 -89
c15 -204 18 -223 32 -217 8 3 30 2 49 -1 l35 -7 0 -134 c0 -73 -3 -140 -6
-149 -4 -11 -19 -16 -48 -16 l-42 0 -12 198 c-16 259 -22 302 -41 302 -6 0 -9
-21 -9 -47 1 -27 -2 -47 -8 -46 -5 1 -9 -9 -9 -22 0 -13 3 -21 8 -18 4 2 7 0
7 -6 0 -5 -10 -11 -22 -13 -22 -3 -23 -7 -28 -143 -4 -100 -7 -131 -13 -110
-23 82 -23 82 -30 10 -4 -39 -4 -81 -1 -95 l5 -25 -13 23 c-8 12 -23 29 -35
37 -20 14 -20 14 -6 -28 23 -66 22 -204 -3 -252 -52 -103 -87 -162 -111 -190
-28 -33 -30 -36 24 53 12 20 7 17 -18 -11 -46 -51 -100 -59 -133 -20 l-23 26
-74 -76 c-47 -48 -83 -77 -96 -77 -13 0 -52 30 -100 78 -68 66 -84 89 -112
156 -32 76 -59 201 -47 213 3 4 6 -4 6 -16 0 -22 41 -71 60 -71 15 0 12 78 -5
125 -8 23 -14 72 -13 115 1 41 3 57 5 35 1 -22 8 -65 14 -95 l12 -55 13 55
c26 108 10 265 -32 311 -23 25 -13 79 26 142 35 57 34 53 14 61 -8 3 -13 2
-10 -3 5 -8 -86 -71 -102 -71 -4 0 -29 -19 -56 -42 -35 -32 -53 -57 -66 -98
-13 -36 -19 -46 -19 -30 -1 26 14 69 92 271 61 156 92 215 187 358 79 118 81
122 70 156 -12 35 -24 48 -49 52 -19 2 -38 -18 -72 -80 -19 -34 -28 -43 -25
-27 3 23 0 25 -38 28 -136 8 -494 35 -696 52 -298 25 -638 50 -668 50 -17 0
-27 -10 -38 -37 -17 -41 -23 38 66 -883 27 -278 68 -703 90 -945 22 -242 43
-462 47 -489 l6 -48 201 7 c111 3 291 10 401 16 110 5 268 9 352 9 l151 0 7
42 c4 23 16 54 26 68 30 42 42 140 28 228 -7 45 -19 83 -28 90 -10 8 -11 11
-2 6 9 -4 12 -3 8 4 -4 5 -16 8 -27 5 -24 -6 -25 0 -4 60 9 26 27 56 40 66 21
17 26 30 38 108 1 7 6 16 11 20 4 4 5 3 2 -3 -10 -18 17 -24 97 -24 71 0 369
-26 414 -35 19 -5 22 -12 22 -58 0 -29 -5 -91 -11 -137 -9 -74 -14 -88 -40
-112 -16 -15 -29 -31 -30 -35 0 -4 -2 -15 -5 -23 -19 -71 -30 -166 -23 -212 8
-61 33 -123 53 -135 11 -7 11 -29 0 -143 -19 -190 -22 -203 -41 -195 -9 3 -57
15 -106 26 -50 11 -93 22 -97 24 -11 7 -308 65 -328 65 -47 -1 34 -25 155 -47
74 -13 145 -28 158 -33 24 -9 35 -30 15 -30 -5 0 -7 -7 -4 -15 7 -17 69 -39
85 -29 8 4 9 3 5 -4 -4 -7 -2 -13 3 -13 20 -3 26 -4 37 -11 20 -13 70 -21 167
-25 53 -3 97 -8 97 -12 0 -4 -35 -24 -78 -45 -65 -30 -86 -35 -118 -30 -53 8
-82 25 -129 74 -22 23 -52 48 -67 56 -27 14 -27 14 -34 -23 -11 -59 12 -174
39 -197 17 -15 18 -18 4 -13 -31 11 -11 -7 57 -53 38 -26 66 -52 66 -62 0 -9
4 -19 8 -22 11 -7 5 -77 -7 -89 -6 -6 -8 -2 -4 12 3 12 1 21 -6 21 -18 0 -26
-4 -24 -12 2 -4 -9 -11 -23 -14 -33 -9 -28 -32 15 -61 24 -16 38 -20 46 -13
24 20 41 2 37 -40 -3 -32 -9 -41 -26 -44 -134 -24 -142 -27 -164 -52 -32 -36
-22 -40 23 -9 32 21 45 24 84 19 66 -8 81 -13 81 -30 0 -8 4 -14 9 -14 11 0 2
-38 -16 -66 -7 -11 -10 -23 -7 -27 3 -3 -19 -13 -51 -22 -74 -22 -67 -26 15
-9 36 7 78 14 94 14 l29 0 -8 97 c-4 54 -7 107 -6 118 8 81 7 134 0 161 -15
49 28 133 68 134 10 0 83 -58 205 -161 50 -43 121 -51 173 -21 19 12 35 18 36
14 6 -55 42 -159 62 -179 19 -20 25 -21 47 -10 38 19 70 86 77 161 6 64 -12
212 -27 221 -4 3 -6 26 -4 52 3 39 2 43 -6 23 -7 -19 -8 -9 -4 35 3 37 1 55
-4 47 -7 -11 -10 -9 -15 7 -3 12 -1 19 4 15 5 -3 9 -1 9 5 0 5 -6 12 -12 14
-10 4 -10 6 0 6 17 1 -11 56 -33 65 -19 7 -55 -10 -55 -26 0 -6 -3 -9 -6 -5
-14 13 -37 158 -39 237 -1 47 -5 105 -9 130 l-8 45 66 -3 c62 -3 72 -9 67 -35
-1 -5 6 -21 16 -38 22 -37 45 -45 106 -40 7 1 47 34 88 74 41 40 91 83 112 96
34 21 37 21 38 4 1 -13 3 -11 8 7 5 14 5 32 1 40 -4 8 -13 86 -21 173 -7 86
-16 157 -20 157 -4 0 -10 21 -14 46 -3 25 -9 44 -12 41 -2 -3 2 -40 11 -82 9
-43 16 -87 16 -99 -1 -21 -1 -21 -16 -1 -8 11 -22 46 -31 78 -9 31 -18 55 -20
53 -2 -2 2 -54 8 -115 11 -98 10 -113 -3 -128 -9 -10 -23 -35 -31 -55 -21 -51
-40 -48 -56 10 -25 84 -69 161 -97 168 -27 7 -37 2 -40 -21 -1 -8 -10 -38 -19
-66 -16 -46 -19 -50 -30 -35 -9 12 -11 54 -8 154 3 75 7 139 9 141 3 3 25 6
50 7 41 1 46 -1 57 -29 l13 -30 33 44 32 44 -5 375 c-7 509 -7 531 0 560 3 14
8 214 11 445 5 368 4 422 -10 433 -13 11 -140 24 -361 37 -37 2 -70 6 -72 7
-1 2 -6 26 -9 53 -9 72 -10 78 -24 103 -6 12 -9 27 -6 32 4 6 -1 13 -9 16 -9
3 -13 10 -10 15 3 5 0 9 -6 9 -6 0 -9 4 -6 9 6 9 -44 47 -56 43 -5 -1 -8 1 -8
6 0 14 -58 9 -77 -7z m-563 -431 c0 -5 -5 -10 -11 -10 -5 0 -7 5 -4 10 3 6 8
10 11 10 2 0 4 -4 4 -10z m1027 -36 c-9 -9 -28 6 -21 18 4 6 10 6 17 -1 6 -6
8 -13 4 -17z m-2142 6 c15 -7 10 -9 -22 -9 -24 -1 -43 4 -43 9 0 12 37 12 65
0z m-205 -30 c-8 -5 -17 -6 -20 -3 -3 3 1 8 8 10 6 3 9 10 6 16 -4 7 -1 7 7
-1 12 -11 12 -14 -1 -22z m96 7 c8 3 14 0 14 -5 0 -16 -18 -24 -25 -12 -4 6
-11 8 -16 5 -5 -4 -9 2 -9 11 0 13 3 15 11 7 6 -6 18 -9 25 -6z m104 -7 c21
-7 19 -8 -17 -9 -24 -1 -43 4 -43 9 0 12 24 12 60 0z m1107 -32 c-3 -7 -5 -2
-5 12 0 14 2 19 5 13 2 -7 2 -19 0 -25z m1177 -33 c3 -8 1 -15 -4 -15 -6 0
-10 7 -10 15 0 8 2 15 4 15 2 0 6 -7 10 -15z m-2347 -17 c-3 -8 -6 -5 -6 6 -1
11 2 17 5 13 3 -3 4 -12 1 -19z m73 -3 c0 -2 -6 -5 -13 -8 -8 -3 -14 1 -14 8
0 7 6 11 14 8 7 -3 13 -6 13 -8z m-113 -87 c-3 -8 -6 -5 -6 6 -1 11 2 17 5 13
3 -3 4 -12 1 -19z m86 -1 c16 3 18 2 8 -5 -11 -8 -11 -10 0 -14 8 -3 3 -5 -11
-5 -20 0 -26 5 -27 21 -1 11 1 16 3 10 3 -7 15 -10 27 -7z m161 -16 c3 -4 -6
-6 -19 -3 -14 2 -25 6 -25 8 0 8 39 4 44 -5z m513 -17 c-3 -3 -12 -4 -19 -1
-8 3 -5 6 6 6 11 1 17 -2 13 -5z m-550 -48 c-2 -6 -13 -9 -23 -8 -24 5 -27 8
-20 20 8 14 48 2 43 -12z m-67 4 c0 -5 -7 -10 -16 -10 -8 0 -12 5 -9 10 3 6
10 10 16 10 5 0 9 -4 9 -10z m-140 -40 c0 -5 -4 -10 -10 -10 -5 0 -10 5 -10
10 0 6 5 10 10 10 6 0 10 -4 10 -10z m57 -165 c0 -8 -4 -15 -9 -15 -4 0 -8 5
-8 10 0 6 -5 10 -11 10 -5 0 -7 -4 -4 -10 4 -6 -7 -10 -24 -10 -17 0 -31 4
-31 10 0 5 7 7 15 4 8 -4 15 -1 15 5 0 6 13 11 28 11 19 0 29 -5 29 -15z m25
-7 c-7 -7 -12 -8 -12 -2 0 14 12 26 19 19 2 -3 -1 -11 -7 -17z m38 7 c0 -8 -4
-15 -10 -15 -5 0 -10 7 -10 15 0 8 5 15 10 15 6 0 10 -7 10 -15z m438 -42
c-15 -2 -42 -2 -60 0 -18 2 -6 4 27 4 33 0 48 -2 33 -4z m-516 -18 c0 -5 -5
-11 -11 -13 -6 -2 -11 4 -11 13 0 9 5 15 11 13 6 -2 11 -8 11 -13z m54 6 c-3
-4 6 -6 21 -3 19 4 24 1 21 -9 -8 -23 -45 -23 -58 0 -9 17 -8 21 5 21 9 0 14
-4 11 -9z m581 3 c-3 -3 -12 -4 -19 -1 -8 3 -5 6 6 6 11 1 17 -2 13 -5z m96
-1 c-13 -2 -35 -2 -50 0 -16 2 -5 4 22 4 28 0 40 -2 28 -4z m-593 -18 c0 -8
-7 -15 -15 -15 -8 0 -15 7 -15 15 0 8 7 15 15 15 8 0 15 -7 15 -15z m55 4 c-4
-6 -13 -8 -20 -5 -8 3 -16 0 -19 -7 -2 -7 -5 -4 -5 6 -1 12 7 17 25 17 15 0
23 -4 19 -11z m99 1 c6 0 12 -12 12 -26 2 -20 -2 -25 -20 -22 -25 3 -49 -10
-41 -23 4 -5 -1 -9 -9 -9 -12 0 -16 11 -16 46 l0 47 31 -7 c17 -3 37 -6 43 -6z
m50 -6 c9 -3 16 -11 16 -16 0 -6 -7 -5 -15 2 -13 11 -14 10 -9 -4 5 -12 2 -15
-10 -10 -17 7 -20 16 -9 27 8 8 8 8 27 1z m441 -4 c-7 13 -6 13 7 2 11 -8 18
-9 22 -3 4 6 16 7 29 2 12 -4 44 -9 72 -10 60 -2 71 -10 57 -49 -6 -17 -6 -35
-1 -43 12 -19 11 -79 -1 -79 -6 0 -9 -32 -9 -77 2 -66 3 -72 9 -38 8 40 8 40
6 -10 l-1 -50 -85 -7 c-76 -6 -577 2 -540 9 8 1 51 4 95 7 103 6 132 10 141
19 4 3 -3 5 -14 2 -19 -3 -20 -1 -9 16 10 16 9 21 -1 28 -11 7 -11 9 2 14 8 3
17 1 20 -6 3 -7 3 2 0 20 -3 26 -1 31 11 27 10 -4 15 0 15 12 0 16 2 17 11 4
8 -12 9 -11 6 5 -2 11 -9 19 -16 17 -7 -1 -10 2 -7 7 4 5 16 8 27 6 16 -3 18
-1 10 9 -6 7 -8 16 -4 20 4 3 -3 13 -15 22 -12 8 -22 21 -22 27 0 8 3 9 8 1 4
-6 15 -13 24 -17 12 -4 15 -2 11 8 -3 9 4 18 18 24 24 10 24 10 -3 8 -15 -1
-24 -5 -22 -9 3 -4 0 -8 -6 -8 -7 0 -9 6 -6 13 3 6 9 20 12 30 4 9 11 17 16
17 5 0 6 5 3 11 -5 7 6 9 33 6 23 -2 47 2 57 9 15 11 21 11 34 1 12 -10 13 -9
6 3z m-701 -46 c3 -8 2 -12 -4 -9 -6 3 -10 10 -10 16 0 14 7 11 14 -7z m216
-15 c0 -5 -4 -9 -10 -9 -15 0 -12 -21 6 -41 10 -11 12 -19 5 -24 -6 -3 -15 4
-19 16 -6 15 -11 18 -16 11 -10 -17 -36 -15 -36 2 0 8 5 16 11 18 5 2 12 12
14 23 2 11 4 21 4 22 3 5 41 -11 41 -18z m1888 -147 l3 -153 -23 3 c-23 3 -23
6 -26 143 -1 76 0 145 3 153 3 7 13 12 22 10 16 -3 18 -20 21 -156z m-2046
121 c-6 -2 -9 -10 -6 -15 4 -7 2 -8 -4 -4 -18 11 -14 26 6 25 10 0 12 -3 4 -6z
m2163 -53 c8 -24 -1 -40 -21 -40 -8 0 -14 10 -14 23 0 40 24 51 35 17z m-2020
-10 c4 -6 -8 -10 -29 -10 -20 0 -36 5 -36 10 0 6 13 10 29 10 17 0 33 -4 36
-10z m-165 -10 c0 -5 -2 -10 -4 -10 -3 0 -8 5 -11 10 -3 6 -1 10 4 10 6 0 11
-4 11 -10z m148 -16 c13 -4 22 -14 22 -25 0 -24 -55 -27 -64 -3 -13 35 -5 40
42 28z m955 -56 c-6 -7 -13 -20 -16 -28 -3 -9 -6 -3 -6 13 -1 19 4 27 15 27
12 0 14 -4 7 -12z m-1213 -8 c0 -5 -4 -10 -10 -10 -5 0 -10 5 -10 10 0 6 5 10
10 10 6 0 10 -4 10 -10z m55 0 c3 -5 1 -10 -4 -10 -6 0 -11 5 -11 10 0 6 2 10
4 10 3 0 8 -4 11 -10z m45 -5 c0 -8 -4 -15 -10 -15 -5 0 -10 7 -10 15 0 8 5
15 10 15 6 0 10 -7 10 -15z m50 0 c0 -8 -9 -15 -20 -15 -11 0 -20 7 -20 15 0
8 9 15 20 15 11 0 20 -7 20 -15z m138 -5 c8 -8 11 -10 8 -4 -3 7 6 9 25 6 16
-2 27 -7 24 -11 -7 -6 -12 -7 -39 -10 -7 0 -16 -14 -18 -31 -4 -24 -1 -30 14
-30 10 0 18 -7 18 -15 0 -11 -12 -15 -50 -15 l-50 0 0 66 0 65 28 -3 c15 -2
33 -10 40 -18z m-183 -39 c3 -5 2 -12 -3 -15 -5 -3 -9 1 -9 9 0 17 3 19 12 6z
m35 -6 c0 -8 -4 -15 -8 -15 -5 0 -9 7 -9 15 0 8 4 15 9 15 4 0 8 -7 8 -15z
m37 -2 c0 -7 -4 -13 -8 -13 -4 0 -9 6 -12 13 -3 8 0 14 7 14 7 0 13 -6 13 -14z
m2113 -8 c0 -8 -4 -15 -10 -15 -5 0 -10 7 -10 15 0 8 5 15 10 15 6 0 10 -7 10
-15z m-2145 -35 c3 -5 2 -10 -4 -10 -5 0 -13 5 -16 10 -3 6 -2 10 4 10 5 0 13
-4 16 -10z m854 -140 c-1 -8 -7 8 -15 35 -7 28 -13 59 -13 70 0 11 7 -5 14
-35 8 -30 14 -62 14 -70z m-911 23 c2 -8 -5 -13 -15 -13 -11 0 -20 7 -20 15 0
18 28 16 35 -2z m26 2 c-4 -8 -7 -15 -9 -15 -2 0 -5 7 -9 15 -3 9 0 15 9 15 9
0 12 -6 9 -15z m2176 -56 c0 -10 -4 -19 -9 -19 -12 0 -23 29 -15 41 8 14 24 0
24 -22z m-1231 -91 c12 -12 21 -25 21 -29 0 -4 6 -14 14 -21 24 -25 102 -152
114 -187 15 -42 10 -48 -22 -27 -18 11 -27 13 -32 4 -4 -6 -3 -8 3 -5 6 4 15
1 21 -6 8 -9 -77 -13 -407 -15 l-418 -4 -11 139 c-7 76 -12 153 -12 171 l0 32
228 -1 c125 0 279 -4 343 -7 l117 -7 -9 23 c-17 44 -9 47 11 5 10 -24 28 -53
39 -65z m-1015 44 c3 -5 -1 -9 -9 -9 -8 0 -15 4 -15 9 0 4 4 8 9 8 6 0 12 -4
15 -8z m36 -7 c0 -8 -2 -15 -4 -15 -2 0 -6 7 -10 15 -3 8 -1 15 4 15 6 0 10
-7 10 -15z m43 -6 c4 -15 2 -19 -10 -15 -8 3 -17 6 -19 6 -2 0 -4 7 -4 15 0
23 27 18 33 -6z m1988 -12 c0 -22 0 -22 10 1 6 17 15 22 31 20 23 -3 23 -5 23
-155 0 -164 -7 -189 -45 -165 -12 7 -21 8 -25 2 -3 -6 -21 -10 -40 -10 l-33 0
18 -60 c10 -33 23 -91 30 -128 11 -66 12 -68 38 -65 54 7 56 0 54 -204 l-2
-111 -55 -4 c-39 -2 -54 0 -51 8 28 73 33 239 7 239 -13 0 -46 -50 -86 -131
-22 -44 -95 -110 -144 -130 -28 -11 -41 -22 -41 -35 0 -40 -17 -17 -23 30 -3
27 -20 92 -37 144 l-32 96 68 70 c60 62 75 72 117 80 56 10 77 25 60 42 -21
21 -91 0 -129 -38 l-35 -35 15 36 c8 20 12 37 8 38 -4 0 -14 2 -22 2 -9 1 -15
11 -15 27 1 23 -3 26 -27 25 -22 -2 -29 4 -37 26 -6 15 -16 28 -23 28 -18 1
16 20 44 25 12 3 24 9 27 14 11 18 112 51 155 51 71 0 76 16 40 119 l-30 86
19 45 19 45 74 -3 c68 -3 74 -5 75 -25z m-1881 7 c0 -12 -10 -14 -47 -12 -63
4 -66 23 -3 26 39 2 50 -1 50 -14z m78 -1 c2 -9 -7 -13 -27 -13 -21 0 -31 5
-31 16 0 19 51 16 58 -3z m2000 -46 c3 -23 0 -27 -22 -27 -21 0 -26 5 -26 23
0 13 3 27 7 31 15 14 38 0 41 -27z m-2078 2 c0 -12 -7 -19 -20 -19 -11 0 -20
6 -20 13 0 8 -3 8 -9 -2 -8 -12 -12 -12 -25 -2 -11 9 -16 10 -16 2 0 -14 -10
-14 -30 -1 -24 16 3 27 66 28 47 0 54 -3 54 -19z m80 1 c0 -16 -7 -20 -30 -20
-23 0 -30 4 -30 20 0 16 7 20 30 20 23 0 30 -4 30 -20z m-2 -46 c-2 -8 -6 -15
-10 -15 -5 1 -17 1 -28 1 -11 0 -20 7 -20 15 0 10 10 15 31 15 22 0 30 -4 27
-16z m1987 -47 c-20 -11 -29 -3 -21 19 5 13 9 14 22 3 14 -11 14 -13 -1 -22z
m-1975 -13 c0 -9 -11 -14 -30 -14 -22 0 -30 5 -30 18 0 15 6 18 30 14 17 -2
30 -10 30 -18z m-3 -41 c4 -9 1 -19 -5 -21 -17 -5 -15 -22 3 -22 8 0 15 -4 15
-10 0 -5 -7 -10 -15 -10 -8 0 -15 -5 -15 -10 0 -6 7 -13 15 -16 25 -10 17 -24
-14 -24 -25 0 -29 4 -34 33 -2 17 0 38 5 45 7 8 7 12 -1 12 -6 0 -11 9 -11 20
0 26 47 28 57 3z m-160 -8 c0 -8 -4 -15 -9 -15 -4 0 -8 7 -8 15 0 8 4 15 8 15
5 0 9 -7 9 -15z m2138 -5 c0 -8 -8 -16 -17 -18 -13 -2 -18 3 -18 18 0 15 5 20
18 18 9 -2 17 -10 17 -18z m-2205 -40 c0 -5 -7 -10 -15 -10 -8 0 -15 5 -15 10
0 6 7 10 15 10 8 0 15 -4 15 -10z m45 0 c3 -5 1 -10 -4 -10 -6 0 -11 5 -11 10
0 6 2 10 4 10 3 0 8 -4 11 -10z m45 0 c0 -5 -7 -10 -15 -10 -8 0 -15 5 -15 10
0 6 7 10 15 10 8 0 15 -4 15 -10z m930 -90 c-20 -13 -40 -13 -40 0 0 6 12 10
28 10 21 0 24 -2 12 -10z m-710 -270 c-8 -5 -26 -33 -40 -61 -14 -29 -31 -55
-39 -57 -7 -3 -4 5 8 17 11 11 21 27 21 34 0 6 9 32 21 56 15 35 22 42 32 32
9 -9 9 -14 -3 -21z m-293 -12 c-3 -7 -5 -2 -5 12 0 14 2 19 5 13 2 -7 2 -19 0
-25z m896 7 c-3 -9 -8 -14 -10 -11 -3 3 -2 9 2 15 9 16 15 13 8 -4z m-790 -12
c-15 -3 -23 -12 -24 -26 0 -12 -3 -16 -6 -9 -9 22 5 42 29 41 l23 -2 -22 -4z
m407 -24 c0 -5 -5 -7 -10 -4 -6 3 -14 -4 -19 -17 -5 -13 -17 -30 -27 -38 -16
-13 -17 -13 -9 0 33 59 65 88 65 59z m361 -20 c-5 -13 -10 -19 -10 -12 -1 15
10 45 15 40 3 -2 0 -15 -5 -28z m-687 -33 c-3 -9 -16 -16 -28 -15 -14 0 -16 2
-6 6 8 3 19 12 23 20 11 19 19 11 11 -11z m186 -6 c-6 -11 -15 -18 -20 -15 -6
4 -5 12 3 20 18 21 29 18 17 -5z m530 -26 c0 -13 -4 -24 -10 -24 -5 0 -10 14
-10 31 0 17 4 28 10 24 6 -3 10 -17 10 -31z m-493 20 c-3 -3 -12 -4 -19 -1 -8
3 -5 6 6 6 11 1 17 -2 13 -5z m456 -109 c2 -55 0 -89 -4 -75 -7 24 -11 205 -4
185 2 -5 5 -55 8 -110z m27 5 c0 -16 -4 -30 -10 -30 -5 0 -10 14 -10 30 0 17
5 30 10 30 6 0 10 -13 10 -30z m20 -121 c0 -11 -4 -17 -10 -14 -5 3 -10 15
-10 26 0 11 5 17 10 14 6 -3 10 -15 10 -26z m1047 -21 c-3 -8 -6 -5 -6 6 -1
11 2 17 5 13 3 -3 4 -12 1 -19z m10 -90 c-2 -13 -4 -3 -4 22 0 25 2 35 4 23 2
-13 2 -33 0 -45z m240 10 c-3 -7 -5 -2 -5 12 0 14 2 19 5 13 2 -7 2 -19 0 -25z
m-120 -40 c-3 -7 -5 -2 -5 12 0 14 2 19 5 13 2 -7 2 -19 0 -25z m97 -13 c-4
-8 -8 -15 -10 -15 -2 0 -4 7 -4 15 0 8 4 15 10 15 5 0 7 -7 4 -15z m-654 -270
c0 -8 -4 -15 -10 -15 -5 0 -10 7 -10 15 0 8 5 15 10 15 6 0 10 -7 10 -15z
m-149 -112 c-12 -20 -14 -14 -5 12 4 9 9 14 11 11 3 -2 0 -13 -6 -23z m634
-131 c-4 -31 -10 -51 -12 -44 -3 7 -2 39 2 70 4 31 10 51 12 44 3 -7 2 -39 -2
-70z m-179 -46 c11 -11 11 -16 1 -19 -6 -3 -3 -6 8 -6 15 -1 17 -4 7 -10 -11
-6 -10 -12 4 -26 17 -17 17 -17 -3 -11 -18 6 -20 3 -15 -19 3 -18 0 -25 -11
-25 -9 0 -19 5 -22 10 -4 6 -12 7 -18 4 -7 -4 -9 -4 -5 1 4 4 2 15 -5 23 -9
13 -9 14 1 8 8 -5 12 0 13 13 2 22 6 57 8 66 2 10 23 5 37 -9z"/>
<path d="M690 3380 c-13 -8 -12 -10 3 -10 9 0 17 5 17 10 0 12 -1 12 -20 0z"/>
<path d="M2989 4353 c-32 -36 -60 -88 -52 -97 3 -3 0 -6 -7 -6 -7 0 -11 -3 -7
-6 3 -4 0 -19 -8 -35 -8 -15 -17 -43 -20 -61 -3 -18 -8 -49 -10 -68 -10 -64
-9 -125 4 -148 6 -12 8 -22 3 -22 -5 0 -2 -16 6 -35 25 -54 43 -44 87 50 34
74 52 103 93 150 5 6 28 27 51 48 22 21 41 45 41 53 0 8 -7 47 -16 86 -20 86
-48 118 -104 118 -27 0 -42 -7 -61 -27z"/>
<path d="M3859 3677 c-14 -11 -14 -22 -3 -101 18 -121 20 -123 28 -26 8 101
-1 145 -25 127z"/>
<path d="M3311 3559 c-28 -31 -41 -86 -48 -204 -5 -92 -3 -116 11 -143 9 -17
30 -69 47 -114 46 -126 84 -152 155 -109 62 38 70 148 21 286 -14 39 -37 108
-51 156 -36 120 -92 174 -135 128z m83 -210 c23 -40 31 -136 14 -169 -17 -31
-62 -38 -89 -14 -10 9 -19 22 -19 27 0 6 11 0 24 -12 32 -30 61 -21 76 25 22
65 -10 155 -53 153 l-22 0 21 -9 c12 -5 25 -15 29 -22 6 -10 5 -11 -6 0 -7 6
-20 12 -28 11 -11 0 -12 -2 -3 -6 18 -7 15 -43 -4 -43 -11 0 -14 6 -9 20 4 13
2 20 -7 20 -10 0 -9 3 2 10 8 5 11 10 6 10 -5 0 -3 7 4 15 20 24 44 18 64 -16z
m-97 -131 c-3 -7 -5 -2 -5 12 0 14 2 19 5 13 2 -7 2 -19 0 -25z"/>
<path d="M2978 3533 c-18 -21 -34 -69 -43 -133 -4 -25 -23 -87 -41 -139 -43
-117 -47 -195 -14 -240 22 -32 51 -40 67 -18 6 6 17 35 26 63 9 27 19 58 23
67 4 13 1 17 -14 17 -43 0 -50 90 -15 188 17 47 40 53 54 15 8 -21 7 -22 -12
-10 -26 16 -36 0 -45 -71 -13 -108 35 -138 68 -42 18 49 19 67 10 169 -8 90
-14 118 -29 133 -18 18 -20 18 -35 1z m18 -238 c-15 -15 -16 -15 -16 3 0 10 3
22 7 26 4 3 11 2 16 -3 6 -6 4 -16 -7 -26z"/>
<path d="M1850 3464 c-16 -42 -11 -166 10 -250 19 -74 71 -176 127 -250 49
-65 125 -43 194 58 l41 61 -19 41 c-31 70 -93 158 -170 243 -109 120 -164 149
-183 97z m163 -171 c63 -67 70 -146 18 -202 -34 -37 -64 -40 -85 -9 -21 29
-21 44 0 24 17 -17 49 -22 39 -6 -3 5 0 7 9 4 43 -16 47 117 6 161 -29 31 -44
31 -64 3 l-16 -22 0 21 c0 26 25 53 49 53 9 0 29 -12 44 -27z m-37 -44 c3 -6
1 -16 -5 -22 -9 -9 -14 -8 -21 3 -9 15 -4 30 10 30 5 0 12 -5 16 -11z m-59
-46 c-3 -10 -5 -4 -5 12 0 17 2 24 5 18 2 -7 2 -21 0 -30z"/>
<path d="M3865 3150 c3 -5 8 -10 11 -10 2 0 4 5 4 10 0 6 -5 10 -11 10 -5 0
-7 -4 -4 -10z"/>
<path d="M3034 3122 c-18 -12 -34 -49 -34 -80 0 -17 13 -47 31 -72 l31 -42 49
48 c57 56 64 90 24 129 -24 25 -77 34 -101 17z m42 -70 c-4 -3 -14 2 -24 12
-16 18 -16 18 6 6 13 -6 21 -14 18 -18z m29 18 c3 -5 1 -10 -4 -10 -6 0 -11 5
-11 10 0 6 2 10 4 10 3 0 8 -4 11 -10z"/>
<path d="M3850 3121 c0 -5 5 -13 10 -16 6 -3 10 -2 10 4 0 5 -4 13 -10 16 -5
3 -10 2 -10 -4z"/>
<path d="M3782 2969 c-54 -109 -75 -140 -141 -209 -43 -44 -82 -80 -87 -80 -5
0 -35 -24 -66 -53 -81 -74 -88 -79 -88 -67 0 7 -6 8 -19 1 -17 -9 -18 -8 -14
12 l6 22 -24 -21 c-28 -25 -47 -32 -112 -45 -58 -11 -100 4 -167 59 -25 21
-58 43 -75 50 l-30 13 35 -34 c25 -23 34 -39 32 -57 -2 -13 2 -29 10 -34 7 -6
20 -20 28 -31 14 -19 14 -19 -5 -5 -11 8 -31 23 -44 35 -24 20 -24 20 -17 0 4
-11 30 -59 59 -108 39 -66 53 -83 58 -70 6 17 12 -15 22 -127 2 -21 4 -11 5
23 l2 59 28 -7 28 -6 -1 61 c0 66 9 77 24 28 7 -26 9 -28 10 -10 1 13 5 20 11
17 10 -6 9 -32 -4 -121 -6 -34 -4 -32 11 14 10 30 21 51 25 47 4 -4 4 -14 0
-23 -5 -15 -4 -15 18 0 47 34 122 69 135 64 8 -3 15 -20 17 -38 l4 -33 11 25
12 25 0 -24 c1 -18 9 -9 32 37 35 66 99 138 139 154 35 14 129 11 144 -5 7 -7
17 -25 22 -41 l10 -29 15 24 c38 59 48 131 28 198 -9 31 -6 48 21 126 72 209
76 228 43 202 -8 -7 -40 -37 -71 -67 -51 -49 -92 -80 -107 -80 -3 0 6 21 19
48 14 26 26 54 28 62 2 8 9 21 16 29 7 7 11 20 8 28 -4 9 -2 11 6 7 7 -5 9 0
6 14 -4 14 -2 20 4 16 6 -4 8 2 3 16 -5 15 -4 20 4 16 6 -4 11 -3 11 3 0 35
-23 3 -78 -110z m-472 -493 c0 -3 -4 -8 -10 -11 -5 -3 -10 -1 -10 4 0 6 5 11
10 11 6 0 10 -2 10 -4z m-209 -32 c5 -15 8 -29 5 -31 -2 -2 -8 10 -14 26 -13
38 -5 41 9 5z m113 -9 c3 -8 1 -15 -4 -15 -6 0 -10 7 -10 15 0 8 2 15 4 15 2
0 6 -7 10 -15z"/>
<path d="M1677 3000 c-49 -39 -47 -124 5 -161 l30 -22 39 44 c52 60 66 102 45
134 -21 32 -81 34 -119 5z"/>
<path d="M3661 2898 c-12 -22 -18 -37 -12 -34 12 8 44 66 39 71 -2 2 -14 -15
-27 -37z"/>
<path d="M3241 2856 c-33 -35 -68 -38 -126 -12 -47 21 -51 21 -68 6 -16 -16
-15 -18 13 -43 16 -15 30 -23 30 -17 0 5 9 10 21 10 11 0 17 -4 14 -10 -3 -5
2 -10 12 -10 26 0 109 54 123 79 14 27 9 26 -19 -3z"/>
<path d="M2 2548 c-1 -204 2 -319 8 -323 19 -12 50 6 56 33 3 15 7 37 10 48 2
13 14 24 29 28 43 11 43 38 2 251 -9 48 -20 69 -54 105 -39 43 -42 51 -46 110
-2 36 -4 -78 -5 -252z"/>
<path d="M3618 2835 c-37 -44 -168 -178 -168 -172 0 8 -27 -18 -50 -48 -24
-32 83 60 143 123 60 62 102 112 93 112 -3 0 -11 -7 -18 -15z"/>
<path d="M1896 2784 c-31 -48 -61 -66 -113 -66 -29 0 -33 -3 -33 -27 0 -38 6
-41 48 -24 49 20 74 44 107 104 34 64 28 72 -9 13z"/>
<path d="M2997 2434 c-9 -9 13 -62 29 -68 12 -5 12 0 -1 31 -18 43 -20 45 -28
37z"/>
<path d="M3200 2235 c0 -8 2 -15 4 -15 2 0 6 7 10 15 3 8 1 15 -4 15 -6 0 -10
-7 -10 -15z"/>
<path d="M3465 2193 c3 -38 1 -63 -5 -63 -6 0 -10 -5 -10 -11 0 -8 5 -8 15 1
16 14 19 69 4 110 -6 17 -7 6 -4 -37z"/>
<path d="M3231 2204 c0 -11 3 -14 6 -6 3 7 2 16 -1 19 -3 4 -6 -2 -5 -13z"/>
<path d="M3187 2149 c-7 -52 4 -88 14 -44 10 45 10 85 0 85 -4 0 -11 -19 -14
-41z"/>
<path d="M3222 2140 c0 -14 2 -19 5 -12 2 6 2 18 0 25 -3 6 -5 1 -5 -13z"/>
<path d="M3132 2110 c0 -14 2 -19 5 -12 2 6 2 18 0 25 -3 6 -5 1 -5 -13z"/>
<path d="M3211 2054 c0 -11 3 -14 6 -6 3 7 2 16 -1 19 -3 4 -6 -2 -5 -13z"/>
<path d="M3121 2028 c0 -9 -4 -25 -7 -35 -5 -17 -5 -17 6 0 6 10 9 25 7 35 -4
15 -5 15 -6 0z"/>
<path d="M0 1913 c0 -60 4 -92 10 -88 5 3 10 13 10 20 0 8 11 22 25 31 36 24
33 61 -10 100 l-35 32 0 -95z"/>
<path d="M3382 1988 c-7 -7 -12 -16 -12 -21 0 -5 -18 -34 -40 -65 -55 -76 -89
-194 -59 -204 7 -2 7 -12 0 -29 -10 -29 -3 -72 22 -131 11 -27 15 -65 14 -133
-1 -66 2 -95 9 -95 7 0 14 -7 17 -15 5 -10 -4 -16 -28 -21 -19 -3 -41 -4 -50
-1 -8 4 -17 2 -20 -3 -6 -9 9 -15 29 -11 5 1 4 -5 -4 -13 -8 -11 -9 -16 -1
-16 6 0 11 -9 11 -20 0 -11 11 -43 24 -71 20 -40 22 -50 9 -47 -8 2 -24 27
-35 56 -11 30 -24 50 -30 46 -7 -4 -6 -9 2 -14 7 -4 9 -13 6 -19 -4 -6 -3 -11
3 -11 6 0 8 -7 5 -15 -4 -8 -1 -15 5 -15 6 0 11 -4 11 -10 0 -5 -17 -10 -39
-10 -33 0 -45 7 -85 50 -26 28 -58 74 -71 103 -28 58 -26 62 -31 -78 -2 -68 3
-119 20 -195 5 -24 16 -51 47 -115 33 -69 77 -105 130 -105 39 0 79 33 79 65
0 10 3 15 7 11 4 -4 19 20 34 54 27 59 54 82 45 38 -3 -13 -8 -59 -12 -103 -7
-88 -26 -155 -55 -195 -22 -30 -34 -80 -19 -80 5 0 10 -9 10 -20 0 -11 -5 -20
-11 -20 -6 0 -1 -15 10 -34 26 -42 26 -46 -1 -47 -13 -1 4 -5 37 -10 62 -8
288 5 327 20 21 8 21 8 -6 15 -23 6 -27 11 -22 29 4 12 8 29 11 37 2 8 11 33
20 54 15 36 51 145 61 185 2 9 8 33 13 54 5 20 7 37 4 37 -3 0 0 6 6 13 6 8 9
16 6 19 -3 3 4 49 14 104 24 120 40 237 48 364 l6 95 -21 -18 c-11 -10 -23
-14 -26 -9 -3 5 3 17 14 27 31 28 24 52 -12 46 -5 0 -8 7 -8 18 0 12 7 18 18
17 13 -1 17 7 17 34 0 19 4 41 9 49 6 9 5 12 -1 8 -17 -10 -31 44 -21 78 4 17
5 76 2 132 l-7 103 -33 -76 c-29 -68 -106 -184 -121 -184 -3 0 1 8 10 18 22
24 69 133 61 141 -3 3 -13 -5 -23 -18 -9 -13 -42 -51 -73 -84 -44 -46 -58 -56
-58 -42 0 37 -59 187 -91 235 -18 26 -45 55 -60 64 -32 19 -32 19 -47 4z m278
-332 c0 -2 -8 -10 -17 -17 -16 -13 -17 -12 -4 4 13 16 21 21 21 13z m-363 -48
c-3 -7 -5 -2 -5 12 0 14 2 19 5 13 2 -7 2 -19 0 -25z m29 -64 c-4 -9 -9 -15
-11 -12 -3 3 -3 13 1 22 4 9 9 15 11 12 3 -3 3 -13 -1 -22z m39 -983 c3 -5 1
-12 -5 -16 -5 -3 -10 1 -10 9 0 18 6 21 15 7z m45 -33 c0 -10 -5 -18 -10 -18
-15 0 -23 27 -16 47 6 15 8 15 16 3 6 -8 10 -23 10 -32z m30 -9 c0 -11 -4 -18
-10 -14 -5 3 -7 12 -3 20 7 21 13 19 13 -6z m37 -36 c-3 -10 -5 -4 -5 12 0 17
2 24 5 18 2 -7 2 -21 0 -30z"/>
<path d="M3073 1893 c9 -2 23 -2 30 0 6 3 -1 5 -18 5 -16 0 -22 -2 -12 -5z"/>
<path d="M3192 1850 c0 -14 2 -19 5 -12 2 6 2 18 0 25 -3 6 -5 1 -5 -13z"/>
<path d="M1471 1744 c0 -11 3 -14 6 -6 3 7 2 16 -1 19 -3 4 -6 -2 -5 -13z"/>
<path d="M3182 1700 c0 -19 2 -27 5 -17 2 9 2 25 0 35 -3 9 -5 1 -5 -18z"/>
<path d="M1360 1683 c0 -15 -2 -16 -10 -3 -7 11 -10 -1 -10 -41 0 -61 20 -102
40 -82 8 7 10 28 6 60 -3 26 -6 56 -6 66 -1 9 -5 17 -11 17 -5 0 -9 -8 -9 -17z"/>
<path d="M1452 1560 c0 -19 2 -27 5 -17 2 9 2 25 0 35 -3 9 -5 1 -5 -18z"/>
<path d="M3178 1455 c-2 -25 0 -45 4 -45 5 0 8 20 8 45 0 25 -2 45 -4 45 -2 0
-6 -20 -8 -45z"/>
<path d="M3188 1375 c-3 -14 -1 -25 3 -25 5 0 9 11 9 25 0 14 -2 25 -4 25 -2
0 -6 -11 -8 -25z"/>
<path d="M3100 1334 c0 -13 37 -47 68 -63 23 -12 26 -8 12 24 -5 11 -9 14 -9
7 -1 -9 -9 -8 -28 5 -16 10 -31 22 -35 28 -5 7 -8 6 -8 -1z"/>
<path d="M3196 1331 c-4 -7 -5 -15 -2 -18 9 -9 19 4 14 18 -4 11 -6 11 -12 0z"/>
<path d="M3205 1284 c4 -11 8 -25 8 -31 0 -7 4 -13 8 -13 14 0 4 53 -10 58
-10 3 -12 0 -6 -14z"/>
<path d="M3225 1220 c-3 -5 -1 -10 4 -10 6 0 11 5 11 10 0 6 -2 10 -4 10 -3 0
-8 -4 -11 -10z"/>
<path d="M4731 1074 c0 -11 3 -14 6 -6 3 7 2 16 -1 19 -3 4 -6 -2 -5 -13z"/>
<path d="M1075 1004 c-44 -8 -91 -15 -105 -18 -14 -2 -35 -5 -47 -5 -19 -1
-23 -7 -23 -35 0 -54 18 -92 53 -109 36 -18 273 -57 347 -57 l49 0 -6 53 c-5
47 -2 56 21 84 14 17 26 35 26 41 0 42 -178 68 -315 46z"/>
<path d="M4742 998 c-2 -14 -16 -16 -119 -12 -94 4 -122 2 -136 -10 -17 -13
-17 -17 -3 -44 13 -26 13 -30 0 -44 -13 -13 -14 -22 -3 -57 7 -23 18 -46 25
-52 7 -6 42 -12 78 -12 73 -2 96 12 142 90 21 36 24 53 21 101 -2 31 -4 50 -5
40z"/>
<path d="M1000 771 c17 -9 182 -32 221 -30 22 1 -187 37 -221 38 -13 0 -13 -1
0 -8z"/>
<path d="M1615 773 c-257 -23 -359 -34 -363 -38 -10 -10 105 -5 296 12 105 10
192 21 192 25 0 8 -46 8 -125 1z"/>
<path d="M4030 770 c14 -5 124 -16 245 -24 121 -9 250 -19 288 -22 39 -4 67
-2 67 3 0 6 -64 13 -142 16 -79 4 -213 14 -298 22 -172 17 -197 17 -160 5z"/>
<path d="M4740 759 c-32 -12 -42 -18 -24 -15 31 5 109 35 89 34 -5 0 -35 -9
-65 -19z"/>
<path d="M4648 733 c6 -2 18 -2 25 0 6 3 1 5 -13 5 -14 0 -19 -2 -12 -5z"/>
<path d="M1805 650 c-3 -5 -1 -10 4 -10 6 0 11 5 11 10 0 6 -2 10 -4 10 -3 0
-8 -4 -11 -10z"/>
<path d="M1924 578 l-19 -23 23 19 c21 18 27 26 19 26 -2 0 -12 -10 -23 -22z"/>
<path d="M1991 469 c-13 -5 -65 -16 -115 -24 -50 -9 -106 -18 -125 -21 -26 -4
-31 -8 -20 -15 10 -6 8 -9 -11 -9 -23 -1 -24 -1 -6 -12 21 -12 279 -5 330 10
l28 8 -23 10 c-13 5 -35 9 -49 7 -14 -1 -59 -5 -100 -8 l-75 -5 73 20 c74 21
146 48 127 49 -5 0 -21 -5 -34 -10z"/>
</g>
</svg>
